<?xml version="1.0" standalone="no"?><!DOCTYPE svg PUBLIC "-//W3C//DTD SVG 1.1//EN" "http://www.w3.org/Graphics/SVG/1.1/DTD/svg11.dtd"><svg t="1648629623490" class="icon" viewBox="0 0 1024 1024" version="1.1" xmlns="http://www.w3.org/2000/svg" p-id="21003" xmlns:xlink="http://www.w3.org/1999/xlink" width="48" height="48"><defs><style type="text/css">@font-face { font-family: feedback-iconfont; src: url("//at.alicdn.com/t/font_1031158_u69w8yhxdu.woff2?t=1630033759944") format("woff2"), url("//at.alicdn.com/t/font_1031158_u69w8yhxdu.woff?t=1630033759944") format("woff"), url("//at.alicdn.com/t/font_1031158_u69w8yhxdu.ttf?t=1630033759944") format("truetype"); }
</style></defs><path d="M256 906.666667h512c12.8 0 21.333333 8.533333 21.333333 21.333333s-8.533333 21.333333-21.333333 21.333333H256c-12.8 0-21.333333-8.533333-21.333333-21.333333s8.533333-21.333333 21.333333-21.333333z" p-id="21004"></path><path d="M149.333333 96h725.333334c46.933333 0 85.333333 38.4 85.333333 85.333333v597.333334c0 46.933333-38.4 85.333333-85.333333 85.333333H149.333333c-46.933333 0-85.333333-38.4-85.333333-85.333333v-597.333334c0-46.933333 36.266667-85.333333 85.333333-85.333333z" fill="#3399FF" p-id="21005"></path><path d="M874.666667 885.333333H149.333333c-59.733333 0-106.666667-46.933333-106.666666-106.666666v-597.333334c0-59.733333 46.933333-106.666667 106.666666-106.666666h725.333334c59.733333 0 106.666667 46.933333 106.666666 106.666666v597.333334c0 59.733333-46.933333 106.666667-106.666666 106.666666zM149.333333 117.333333c-36.266667 0-64 27.733333-64 64v597.333334c0 36.266667 27.733333 64 64 64h725.333334c36.266667 0 64-27.733333 64-64v-597.333334c0-36.266667-27.733333-64-64-64H149.333333z" p-id="21006"></path><path d="M64 693.333333h896v85.333334c0 46.933333-38.4 85.333333-85.333333 85.333333H149.333333c-46.933333 0-85.333333-38.4-85.333333-85.333333v-85.333334z" fill="#FFBF80" p-id="21007"></path><path d="M874.666667 885.333333H149.333333c-59.733333 0-106.666667-46.933333-106.666666-106.666666v-106.666667h938.666666v106.666667c0 59.733333-46.933333 106.666667-106.666666 106.666666z m-789.333334-170.666666v64c0 36.266667 27.733333 64 64 64h725.333334c36.266667 0 64-27.733333 64-64v-64H85.333333z" p-id="21008"></path><path d="M277.333333 330.666667h42.666667v256h-42.666667zM576 330.666667h42.666667v256h-42.666667zM426.666667 202.666667h42.666666v384h-42.666666zM725.333333 245.333333h42.666667v341.333334h-42.666667z" p-id="21009"></path></svg>