<?xml version="1.0" standalone="no"?><!DOCTYPE svg PUBLIC "-//W3C//DTD SVG 1.1//EN" "http://www.w3.org/Graphics/SVG/1.1/DTD/svg11.dtd"><svg t="1647999078355" class="icon" viewBox="0 0 1024 1024" version="1.1" xmlns="http://www.w3.org/2000/svg" p-id="11714" xmlns:xlink="http://www.w3.org/1999/xlink" width="48" height="48"><defs><style type="text/css">@font-face { font-family: feedback-iconfont; src: url("//at.alicdn.com/t/font_1031158_u69w8yhxdu.woff2?t=1630033759944") format("woff2"), url("//at.alicdn.com/t/font_1031158_u69w8yhxdu.woff?t=1630033759944") format("woff"), url("//at.alicdn.com/t/font_1031158_u69w8yhxdu.ttf?t=1630033759944") format("truetype"); }
</style></defs><path d="M512 512m-512 0a512 512 0 1 0 1024 0 512 512 0 1 0-1024 0Z" fill="#EEEEEE" p-id="11715"></path><path d="M447.2832 952.7296c-4.096-15.5648-8.192-31.9488-12.288-46.6944-1.6384-6.5536-3.2768-12.288-4.9152-18.8416v-0.8192c-0.8192-4.9152-2.4576-9.0112-3.2768-13.1072-0.8192-1.6384-0.8192-3.2768-1.6384-4.9152-2.4576-8.192-4.096-15.5648-5.7344-22.9376-2.4576-9.0112-4.9152-18.8416-7.3728-27.8528 0-1.6384-0.8192-2.4576-0.8192-4.096v-0.8192c-0.8192-3.2768-1.6384-5.7344-1.6384-5.7344l-3.2768-8.192c-1.6384-3.2768-3.2768-5.7344-4.096-5.7344-2.4576 0.8192-4.9152 1.6384-8.192 2.4576-1.6384 0.8192-4.096 1.6384-5.7344 2.4576-5.7344 2.4576-11.4688 4.096-17.2032 6.5536-0.8192 0.8192-2.4576 0.8192-3.2768 1.6384-3.2768 1.6384-7.3728 3.2768-10.6496 4.9152-0.8192 0.8192-2.4576 0.8192-3.2768 1.6384-3.2768 1.6384-6.5536 3.2768-9.8304 5.7344-4.096 2.4576-9.0112 4.9152-13.1072 8.192-11.4688 7.3728-22.9376 16.384-32.768 26.2144-24.576 23.7568-45.8752 53.248-61.44 88.4736 54.8864 35.2256 117.1456 60.6208 184.32 72.9088 12.288 2.4576 25.3952 4.096 37.6832 5.7344 2.4576 0 4.9152 0.8192 7.3728 0.8192-6.5536-21.2992-13.1072-44.2368-18.8416-67.9936zM693.8624 820.0192c-3.2768-1.6384-6.5536-4.096-10.6496-5.7344-6.5536-3.2768-13.1072-6.5536-19.6608-9.0112-2.4576-0.8192-4.096-1.6384-6.5536-2.4576l5.7344 3.2768c-4.9152-2.4576-9.8304-4.096-15.5648-6.5536-1.6384-0.8192-4.096-1.6384-5.7344-2.4576-2.4576-0.8192-4.9152-1.6384-8.192-2.4576-0.8192 0-2.4576 2.4576-4.096 5.7344l-3.2768 8.192s-0.8192 2.4576-1.6384 5.7344v0.8192c0 1.6384-0.8192 2.4576-0.8192 4.096-2.4576 9.0112-4.9152 18.8416-7.3728 27.8528-1.6384 6.5536-4.096 14.7456-5.7344 22.9376 0 1.6384-0.8192 3.2768-1.6384 4.9152 0 0.8192-0.8192 1.6384-0.8192 2.4576-0.8192 3.2768-1.6384 6.5536-2.4576 10.6496v0.8192c-1.6384 5.7344-3.2768 12.288-4.9152 18.8416-4.096 14.7456-8.192 30.3104-12.288 46.6944-5.7344 22.9376-11.4688 45.8752-17.2032 67.1744 7.3728-0.8192 14.7456-1.6384 22.1184-3.2768 8.192-1.6384 16.384-2.4576 24.576-4.096 65.536-13.9264 126.976-40.1408 181.0432-77.0048-25.3952-53.248-61.44-91.7504-104.8576-117.1456z" fill="#3E3E3E" p-id="11716"></path><path d="M517.7344 812.6464l70.4512-42.5984v-62.2592c64.7168-27.8528 116.3264-91.7504 139.264-162.2016 27.8528-4.096 61.44-86.8352 23.7568-112.2304-0.8192 7.3728-2.4576 13.9264-6.5536 18.8416l-2.4576 2.4576c-4.9152 17.2032-11.4688 32.768-20.48 48.3328-6.5536-15.5648-2.4576-33.5872-1.6384-50.7904-4.096-3.2768-8.192-8.192-11.4688-13.1072-19.6608-26.2144-45.8752-35.2256-74.5472-50.7904-49.9712-27.8528-104.8576-49.152-163.0208-46.6944-36.0448 1.6384-70.4512 13.1072-100.7616 32.768-14.7456 9.8304-28.672 21.2992-41.7792 34.4064-5.7344 5.7344-12.288 16.384-18.8416 25.3952-0.8192 3.2768-0.8192 6.5536-0.8192 9.8304-0.8192 19.6608 6.5536 40.96-1.6384 58.9824-9.0112-16.384-16.384-33.5872-21.2992-51.6096-4.9152-1.6384-6.5536-9.8304-6.5536-18.0224-41.7792 27.0336 0.8192 122.88 29.4912 112.2304 22.1184 70.4512 72.9088 133.5296 136.8064 161.3824h0.8192c22.1184 9.8304 45.8752 14.7456 70.4512 14.7456 23.7568 0 48.3328-4.9152 68.8128-14.7456v20.48c-40.1408 22.1184-90.112 18.8416-140.0832 0.8192v40.1408l0.8192-0.8192 71.2704 45.056z" fill="#FFDDCC" p-id="11717"></path><path d="M744.6528 263.7824c-4.9152-10.6496-12.288-19.6608-19.6608-28.672-24.576-28.672-56.5248-49.9712-90.9312-53.248-18.0224-1.6384-35.2256 3.2768-49.9712 13.1072-0.8192 0-2.4576 0-3.2768-0.8192-5.7344-10.6496-14.7456-20.48-22.9376-27.0336-30.3104-23.7568-67.9936-36.0448-104.0384-28.672-16.384 3.2768-31.9488 11.4688-47.5136 18.8416-19.6608 9.8304-40.1408 19.6608-58.9824 31.9488-18.0224 12.288-36.0448 26.2144-57.344 27.0336-15.5648 0-29.4912-7.3728-43.4176-14.7456 1.6384 39.3216 23.7568 76.1856 53.248 95.0272 2.4576 1.6384 4.9152 2.4576 6.5536 4.096-10.6496 18.8416-18.0224 38.5024-22.1184 59.8016-4.096 18.0224-4.9152 36.864-4.096 55.7056v16.384c0.8192 8.192 1.6384 16.384 6.5536 18.0224 4.9152 18.0224 12.288 35.2256 21.2992 51.6096 8.192-18.0224 0-39.3216 1.6384-58.9824 0-3.2768 0.8192-6.5536 0.8192-9.8304 6.5536-9.0112 13.1072-19.6608 18.8416-25.3952 12.288-13.1072 26.2144-24.576 41.7792-34.4064 30.3104-19.6608 64.7168-31.1296 100.7616-32.768 58.1632-2.4576 113.0496 18.8416 163.0208 46.6944 28.672 15.5648 54.8864 24.576 74.5472 50.7904 3.2768 4.9152 6.5536 9.0112 11.4688 13.1072-0.8192 17.2032-5.7344 35.2256 1.6384 50.7904 9.0112-15.5648 15.5648-31.1296 20.48-48.3328l2.4576-2.4576c3.2768-4.096 4.9152-10.6496 6.5536-18.8416 0-2.4576 0.8192-5.7344 0.8192-9.0112 6.5536-48.3328 5.7344-131.8912-8.192-159.744z" fill="#332014" p-id="11718"></path><path d="M586.5472 727.4496v-20.48c-20.48 9.0112-44.2368 14.7456-68.8128 14.7456s-48.3328-5.7344-70.4512-14.7456h-0.8192V729.088c50.7904 17.2032 100.7616 20.48 140.0832-1.6384z" fill="#F4C6A8" p-id="11719"></path><path d="M447.2832 952.7296c-4.096-15.5648-8.192-31.9488-12.288-46.6944-1.6384-6.5536-3.2768-12.288-4.9152-18.8416v-0.8192c-0.8192-4.9152-2.4576-9.0112-3.2768-13.1072-0.8192-1.6384-0.8192-3.2768-1.6384-4.9152-2.4576-8.192-4.096-15.5648-5.7344-22.9376-2.4576-9.0112-4.9152-18.8416-7.3728-27.8528 0-1.6384-0.8192-2.4576-0.8192-4.096v-0.8192c-0.8192-3.2768-1.6384-5.7344-1.6384-5.7344l-3.2768-8.192c-1.6384-3.2768-3.2768-5.7344-4.096-5.7344-2.4576 0.8192-4.9152 1.6384-8.192 2.4576-1.6384 0.8192-4.096 1.6384-5.7344 2.4576-5.7344 2.4576-11.4688 4.096-17.2032 6.5536-0.8192 0.8192-2.4576 0.8192-3.2768 1.6384-3.2768 1.6384-7.3728 3.2768-10.6496 4.9152v97.4848l55.7056-5.7344-22.9376 32.768-4.9152 7.3728 34.4064 71.2704c12.288 2.4576 25.3952 4.096 37.6832 5.7344 2.4576 0 4.9152 0.8192 7.3728 0.8192-4.9152-21.2992-11.4688-44.2368-17.2032-67.9936zM668.4672 806.912c-0.8192-0.8192-2.4576-0.8192-3.2768-1.6384-0.8192 0-0.8192-0.8192-1.6384-0.8192-4.9152-2.4576-9.8304-4.096-15.5648-6.5536-1.6384-0.8192-4.096-1.6384-5.7344-2.4576-2.4576-0.8192-4.9152-1.6384-8.192-2.4576-0.8192 0-2.4576 2.4576-4.096 5.7344l-3.2768 8.192s-0.8192 2.4576-1.6384 5.7344v0.8192c0 1.6384-0.8192 2.4576-0.8192 4.096-2.4576 9.0112-4.9152 18.8416-7.3728 27.8528-1.6384 6.5536-4.096 14.7456-5.7344 22.9376 0 1.6384-0.8192 3.2768-1.6384 4.9152 0 0.8192-0.8192 1.6384-0.8192 2.4576-0.8192 3.2768-1.6384 6.5536-2.4576 10.6496v0.8192c-1.6384 5.7344-3.2768 12.288-4.9152 18.8416-4.096 14.7456-8.192 30.3104-12.288 46.6944-5.7344 22.9376-11.4688 45.8752-17.2032 67.1744 7.3728-0.8192 14.7456-1.6384 22.1184-3.2768 8.192-1.6384 16.384-2.4576 24.576-4.096l33.5872-68.8128-4.9152-6.5536-23.7568-32.768 55.7056 5.7344v-98.304c-3.2768-0.8192-7.3728-3.2768-10.6496-4.9152z" fill="#333333" p-id="11720"></path><path d="M477.5936 847.872l-17.2032 14.7456-30.3104 25.3952c1.6384 5.7344 3.2768 12.288 4.9152 18.8416 4.096 14.7456 8.192 30.3104 12.288 46.6944 5.7344 22.9376 11.4688 46.6944 17.2032 68.8128 7.3728 0.8192 13.9264 1.6384 21.2992 1.6384l7.3728-64.7168 6.5536-55.7056 1.6384-13.9264 1.6384-14.7456-4.096-4.096-21.2992-22.9376zM593.1008 896.2048l-24.576-27.0336-14.7456-15.5648-16.384 16.384-7.3728 7.3728 1.6384 12.288 1.6384 14.7456 7.3728 54.0672 8.192 63.8976c7.3728-0.8192 14.7456-0.8192 22.1184-2.4576 5.7344-21.2992 11.4688-44.2368 17.2032-67.1744 4.096-15.5648 8.192-31.9488 12.288-46.6944 1.6384-6.5536 3.2768-12.288 4.9152-18.8416v-0.8192c0.8192-3.2768 1.6384-7.3728 2.4576-10.6496l-14.7456 20.48z" fill="#EEEEEE" p-id="11721"></path><path d="M657.8176 801.9968L589.824 768.4096l-1.6384 0.8192-70.4512 42.5984-69.632-44.2368-0.8192 0.8192-76.1856 36.864c5.7344-2.4576 11.4688-4.9152 17.2032-6.5536 1.6384-0.8192 4.096-1.6384 5.7344-2.4576 2.4576-0.8192 4.9152-1.6384 8.192-2.4576 0.8192 0 2.4576 2.4576 4.096 5.7344l3.2768 8.192s0.8192 2.4576 1.6384 5.7344v0.8192c0 1.6384 0.8192 2.4576 0.8192 4.096 2.4576 9.0112 4.9152 18.8416 7.3728 27.8528 1.6384 6.5536 4.096 14.7456 5.7344 22.9376 0 1.6384 0.8192 3.2768 1.6384 4.9152 0.8192 4.096 2.4576 9.0112 3.2768 13.1072v0.8192l30.3104-25.3952 17.2032-14.7456-22.9376-22.9376 62.2592-11.4688 64.7168 11.4688-28.672 28.672 14.7456 15.5648 24.576 27.0336 15.5648-19.6608c0-0.8192 0.8192-1.6384 0.8192-2.4576 0.8192-1.6384 0.8192-3.2768 1.6384-4.9152 2.4576-8.192 4.096-15.5648 5.7344-22.9376 2.4576-9.0112 4.9152-18.8416 7.3728-27.8528 0-1.6384 0.8192-2.4576 0.8192-4.096v-0.8192c0.8192-3.2768 1.6384-5.7344 1.6384-5.7344l3.2768-8.192c1.6384-3.2768 3.2768-5.7344 4.096-5.7344 2.4576 0.8192 4.9152 1.6384 8.192 2.4576 1.6384 0.8192 4.096 1.6384 5.7344 2.4576 4.9152 1.6384 10.6496 4.096 15.5648 6.5536l-4.9152-3.2768z" fill="#FFFFFF" p-id="11722"></path><path d="M553.7792 853.6064l28.672-28.672-64.7168-11.4688-62.2592 11.4688 22.9376 22.9376 21.2992 21.2992 4.096 4.096-1.6384 14.7456-1.6384 13.9264-6.5536 55.7056-7.3728 64.7168c8.192 0.8192 17.2032 0.8192 26.2144 0.8192 12.288 0 24.576-0.8192 36.864-1.6384l-8.192-63.8976-7.3728-54.0672-1.6384-14.7456-1.6384-12.288 7.3728-7.3728 15.5648-15.5648z" fill="#FF3333" p-id="11723"></path></svg>