<?xml version="1.0" standalone="no"?><!DOCTYPE svg PUBLIC "-//W3C//DTD SVG 1.1//EN"
        "http://www.w3.org/Graphics/SVG/1.1/DTD/svg11.dtd">
<svg t="1648026985419" class="icon" viewBox="0 0 1024 1024" version="1.1" xmlns="http://www.w3.org/2000/svg"
     p-id="18514" width="48" height="48">
    <defs>
        <style type="text/css">@font-face { font-family: feedback-iconfont; src:
            url("//at.alicdn.com/t/font_1031158_u69w8yhxdu.woff2?t=1630033759944") format("woff2"),
            url("//at.alicdn.com/t/font_1031158_u69w8yhxdu.woff?t=1630033759944") format("woff"),
            url("//at.alicdn.com/t/font_1031158_u69w8yhxdu.ttf?t=1630033759944") format("truetype"); }
        </style>
    </defs>
    <path d="M131.11 192.37m32.17 0l700.08 0q32.17 0 32.17 32.17l0 0q0 32.17-32.17 32.17l-700.08 0q-32.17 0-32.17-32.17l0 0q0-32.17 32.17-32.17Z"
          p-id="18515"></path>
    <path d="M131.11 766.83m32.17 0l700.08 0q32.17 0 32.17 32.17l0 0q0 32.17-32.17 32.17l-700.08 0q-32.17 0-32.17-32.17l0 0q0-32.17 32.17-32.17Z"
          p-id="18516"></path>
    <path d="M449.33 385.09m32.17 0l381.87 0q32.17 0 32.17 32.17l0 0q0 32.17-32.17 32.17l-381.87 0q-32.17 0-32.17-32.17l0 0q0-32.17 32.17-32.17Z"
          p-id="18517"></path>
    <path d="M449.33 578.11m32.17 0l381.87 0q32.17 0 32.17 32.17l0 0q0 32.17-32.17 32.17l-381.87 0q-32.17 0-32.17-32.17l0 0q0-32.17 32.17-32.17Z"
          p-id="18518"></path>
    <path d="M129.91 512.16L321.14 639.7V384.62L129.91 512.16z" p-id="18519"></path>
</svg>
