<?xml version="1.0" standalone="no"?><!DOCTYPE svg PUBLIC "-//W3C//DTD SVG 1.1//EN" "http://www.w3.org/Graphics/SVG/1.1/DTD/svg11.dtd"><svg t="1647588971784" class="icon" viewBox="0 0 1024 1024" version="1.1" xmlns="http://www.w3.org/2000/svg" p-id="19276" xmlns:xlink="http://www.w3.org/1999/xlink" width="48" height="48"><defs><style type="text/css"></style></defs><path d="M778.01472 272.96768h-47.60576l-17.84832-47.77472-17.84832 47.77472h-47.60576l38.67648 29.86496-17.84832 53.74976 44.63104-32.84992 44.62592 32.84992-17.84832-53.74976 38.67136-29.86496z m-117.98016 155.5712h-34.16576l-12.81024-34.29376-12.81024 34.29376h-34.16576l27.75552 21.43232-12.81536 38.57408 32.03584-23.57248 32.0256 23.57248-12.80512-38.57408 27.75552-21.43232z m116.56192 171.45856h-25.89696l-9.70752-25.98912-9.71264 25.98912h-25.89184l21.03296 16.24576-9.70752 29.2352 24.27904-17.8688 24.27392 17.8688-9.70752-29.2352 21.03808-16.24576zM511.31904 204.8c-155.69408 14.49984-277.63712 146.08896-277.63712 306.47808 0 170.07104 137.07776 307.92192 306.1504 307.92192 95.70816 0 194.33984-44.2368 250.48064-113.42336-9.39008 0.88576-32.13824 1.4592-41.73824 1.4592-169.07264 0-306.1504-137.87136-306.1504-307.93728 0-73.78944 25.86112-141.44512 68.89472-194.49856z" p-id="19277" fill="#ffd800"></path></svg>
