<?xml version="1.0" standalone="no"?><!DOCTYPE svg PUBLIC "-//W3C//DTD SVG 1.1//EN" "http://www.w3.org/Graphics/SVG/1.1/DTD/svg11.dtd"><svg t="1678109746779" class="icon" viewBox="0 0 1024 1024" version="1.1" xmlns="http://www.w3.org/2000/svg" p-id="2786" xmlns:xlink="http://www.w3.org/1999/xlink" width="6000" height="6000"><path d="M594.917 144.399c0-43.804-37.123-79.478-82.916-79.478-45.7 0-82.918 35.585-82.918 79.478 0 4.473 0.386 8.86 1.13 13.133-114.498 38.254-208.43 155.73-208.43 294.718v109.423s0 157.59-40.389 158.964c-24.082 0-42.528 17.792-42.528 39.74 0 22.1 18.557 39.738 41.452 39.738h663.366c23.005 0 41.451-17.791 41.451-39.737 0-22.104-18.557-39.741-41.45-39.741-41.466 0-41.466-157.854-41.466-157.854v-110.52c0-139.166-87.828-256.69-208.409-294.828a76.963 76.963 0 0 0 1.107-13.036z m41.46 695.39c-0.123 65.905-55.285 119.29-124.377 119.29-68.617 0-124.255-53.164-124.379-119.29h248.757z" p-id="2787"></path></svg>
